<?xml version="1.0" encoding="UTF-8" standalone="no"?>
<!-- Created with Inkscape (http://www.inkscape.org/) -->

<svg
   width="403.46402mm"
   height="90.889549mm"
   viewBox="-23 -45 397.03787 89.441893"
   version="1.1"
   id="svg2882"
   inkscape:version="1.2.2 (b0a8486541, 2022-12-01)"
   sodipodi:docname="primes-logo-full.svg"
   inkscape:export-filename="../Git/Hub/Primes.jl/docs/src/assets/logo.png"
   inkscape:export-xdpi="300"
   inkscape:export-ydpi="300"
   xmlns:inkscape="http://www.inkscape.org/namespaces/inkscape"
   xmlns:sodipodi="http://sodipodi.sourceforge.net/DTD/sodipodi-0.dtd"
   xmlns="http://www.w3.org/2000/svg"
   xmlns:svg="http://www.w3.org/2000/svg"
   xmlns:rdf="http://www.w3.org/1999/02/22-rdf-syntax-ns#"
   xmlns:cc="http://creativecommons.org/ns#">
  <sodipodi:namedview
     id="namedview2884"
     pagecolor="#1f1f1f"
     bordercolor="#111111"
     borderopacity="1"
     inkscape:showpageshadow="0"
     inkscape:pageopacity="1"
     inkscape:pagecheckerboard="false"
     inkscape:deskcolor="#d1d1d1"
     inkscape:document-units="mm"
     showgrid="false"
     inkscape:zoom="0.76969697"
     inkscape:cx="679.48819"
     inkscape:cy="99.389764"
     inkscape:window-width="1709"
     inkscape:window-height="749"
     inkscape:window-x="2025"
     inkscape:window-y="118"
     inkscape:window-maximized="0"
     inkscape:current-layer="layer1"
     showguides="true"
     borderlayer="true"
     showborder="true">
    <inkscape:grid
       type="xygrid"
       id="grid6996"
       dotted="true"
       originx="201.10448"
       originy="-154.20394" />
  </sodipodi:namedview>
  <defs
     id="defs2879" />
  <g
     inkscape:label="Слой 1"
     inkscape:groupmode="layer"
     id="layer1"
     transform="translate(204.45783,-156.70184)"
     style="display:inline">
    <path
       id="text5105-7"
       style="font-style:normal;font-variant:normal;font-weight:300;font-stretch:normal;font-size:62px;font-family:JuliaMono;-inkscape-font-specification:'JuliaMono Light';letter-spacing:-4.39208px;display:inline;mix-blend-mode:exclusion;fill:#000000;fill-opacity:1;stroke:#ffffff;stroke-width:4.92036;stroke-linecap:butt;stroke-dasharray:none;stroke-opacity:1;paint-order:markers stroke fill"
       d="m 37.064998,133.66778 c -1.405332,0 -2.397272,0.29975 -2.975938,0.89908 -0.578666,0.57867 -0.868067,1.58096 -0.868067,3.00696 0,1.40533 0.289401,2.40763 0.868067,3.00696 0.599332,0.59933 1.591273,0.89909 2.975938,0.89909 1.425998,0 2.428292,-0.29976 3.006959,-0.89909 0.599332,-0.59933 0.899087,-1.60163 0.899087,-3.00696 0,-1.426 -0.299755,-2.42829 -0.899087,-3.00696 -0.578667,-0.59933 -1.580961,-0.89908 -3.006959,-0.89908 z m 7.810566,0.062 v 3.5343 H 55.9738 v 35.58769 c 0,2.62466 0.319954,4.70173 0.96062,6.23106 0.661332,1.52933 1.736104,2.64552 3.224102,3.34819 1.487999,0.68199 3.523649,1.02266 6.106979,1.02266 1.322666,0 2.469914,-0.0927 3.441247,-0.27868 0.971332,-0.186 2.242319,-0.52717 3.812984,-1.02317 v -4.40187 c -0.867999,0.47534 -1.901355,0.86777 -3.10002,1.17777 -1.177999,0.28933 -2.211355,0.43429 -3.100021,0.43429 -1.797998,0 -3.172524,-0.14496 -4.123189,-0.43429 -0.950666,-0.28934 -1.653206,-0.87798 -2.107872,-1.76665 -0.433999,-0.88866 -0.650923,-2.24248 -0.650923,-4.06115 v -39.37015 z m -251.548144,4.03013 v 44.94978 h 4.58798 v -19.09594 h 8.30792 c 4.46399,0 8.1118,-0.97123 10.94313,-2.9139 2.83133,-1.96333 4.24676,-5.26997 4.24676,-9.91996 0,-8.67999 -5.14607,-13.01998 -15.43806,-13.01998 z m 4.58798,3.96808 h 7.62597 c 2.25267,0 4.16407,0.23763 5.73474,0.71297 1.59133,0.47533 2.86231,1.37408 3.81298,2.69675 0.95067,1.32266 1.42644,3.18281 1.42644,5.58014 0,2.604 -0.52703,4.56717 -1.58103,5.88983 -1.03334,1.302 -2.42857,2.15985 -4.18523,2.57318 -1.736,0.39267 -4.00928,0.58888 -6.81995,0.58888 h -6.01392 z m 47.37804,6.26208 c -1.24,0 -2.50063,0.27905 -3.78196,0.83705 -1.26067,0.558 -2.37686,1.39463 -3.34819,2.51063 -0.97133,1.09533 -1.63296,2.4388 -1.9843,4.03013 l -0.71296,-6.7579 h -8.71067 v 3.844 h 5.08381 c 0.28933,0.84733 0.50625,1.66377 0.65092,2.4491 0.16533,0.78533 0.28958,1.99419 0.37225,3.62686 0.10333,1.612 0.1551,3.84386 0.1551,6.69586 l -0.062,6.26208 c -0.0827,5.49733 -0.12408,9.23781 -0.12408,11.22181 h 4.58799 v -14.19771 c 0,-5.37332 0.53738,-9.46533 1.61205,-12.27599 1.07466,-2.81067 2.955,-4.21626 5.64167,-4.21626 1.44666,0 2.728,0.25834 3.844,0.77501 1.13667,0.51666 1.96345,1.0644 2.48012,1.64307 l 2.6042,-3.03798 c -0.90933,-0.992 -2.1389,-1.80843 -3.6889,-2.4491 -1.52933,-0.64066 -3.06901,-0.96062 -4.61901,-0.96062 z m 55.416434,0 c -1.384674,0 -2.510704,0.37173 -3.378704,1.11573 -0.868,0.744 -1.5809,1.94301 -2.1389,3.59635 l -0.37224,-4.09217 h -4.27779 c 0.10334,1.42599 0.18566,2.88284 0.24766,4.37084 0.0827,1.46733 0.12408,2.80044 0.12408,3.99911 v 25.72976 h 4.83616 v -22.00984 c 0,-2.81066 0.34117,-4.9597 1.02316,-6.44769 0.70267,-1.488 1.62214,-2.23247 2.7588,-2.23247 0.744004,0 1.425834,0.33082 2.045834,0.99215 0.62,0.64067 1.11597,1.62225 1.48797,2.94492 0.372,1.302 0.55837,2.88309 0.55837,4.74309 v 22.00984 h 4.959729 v -22.00984 c 0,-1.86 0.18637,-3.44109 0.55837,-4.74309 0.392666,-1.32267 0.89899,-2.30425 1.518989,-2.94492 0.62,-0.66133 1.291478,-0.99215 2.01481,-0.99215 1.095332,0 1.942827,0.73411 2.542159,2.20145 0.62,1.44666 0.9296,3.60605 0.9296,6.47871 v 22.00984 h 4.898194 v -22.5677 c 0,-8.05999 -2.459142,-12.08987 -7.377804,-12.08987 -1.260665,0 -2.366498,0.1755 -3.317164,0.52684 -0.950666,0.35133 -1.79816,1.02281 -2.542159,2.01481 -0.723333,0.97133 -1.271072,2.35621 -1.643072,4.15421 -0.392666,-4.50533 -2.211392,-6.75791 -5.456052,-6.75791 z m 70.45223,0 c -2.149331,0 -4.164273,0.34067 -6.044938,1.02266 -1.880664,0.66134 -3.40999,1.72576 -4.587989,3.19309 -1.177999,1.44666 -1.767154,3.2861 -1.767154,5.51809 0,2.17 0.558093,3.92661 1.674092,5.26994 1.115999,1.32266 2.490016,2.3146 4.122681,2.97594 1.632666,0.66133 3.627408,1.26084 5.983406,1.79817 0.31,0.0827 0.919354,0.21676 1.828686,0.40276 1.901332,0.41333 3.348335,0.78556 4.340334,1.11623 0.991999,0.31 1.787215,0.77491 2.386548,1.39491 0.619999,0.59933 0.930108,1.42612 0.930108,2.48011 0,1.24 -0.444201,2.29407 -1.332867,3.16207 -0.888665,0.84733 -1.994498,1.48774 -3.317164,1.92174 -1.301998,0.41334 -2.562631,0.61991 -3.781964,0.61991 -1.839331,0 -3.575226,-0.40279 -5.207891,-1.20879 -1.611999,-0.806 -3.224156,-1.99415 -4.836154,-3.56482 l -2.975938,3.03798 c 1.673998,1.88067 3.472017,3.31681 5.394015,4.30881 1.921998,0.97133 4.340233,1.45695 7.25423,1.45695 2.087332,0 4.112628,-0.31011 6.075959,-0.93011 1.983998,-0.62 3.637062,-1.66371 4.959727,-3.13104 1.322666,-1.46734 1.984298,-3.37874 1.984298,-5.73474 0,-2.14933 -0.516678,-3.83345 -1.55001,-5.05279 -1.033332,-1.21933 -2.211643,-2.06682 -3.534308,-2.54215 -1.322665,-0.496 -2.92396,-0.9195 -4.804625,-1.27083 l -1.023169,-0.18608 c -2.934664,-0.59934 -5.342546,-1.38471 -7.22321,-2.35604 -1.880665,-0.992 -2.820836,-2.37688 -2.820836,-4.15421 0,-1.03333 0.372232,-1.94244 1.116231,-2.72777 0.744,-0.78534 1.725586,-1.38484 2.944918,-1.79818 1.219332,-0.41333 2.511027,-0.6199 3.875025,-0.6199 2.748664,0 5.372961,0.99194 7.873625,2.97594 l 2.914406,-3.34819 c -2.686664,-2.68666 -6.30341,-4.02962 -10.850072,-4.02962 z m -31.908953,0.18562 c -2.58333,0 -4.991212,0.76466 -7.22321,2.29399 -2.211331,1.50867 -3.978288,3.58573 -5.300953,6.23106 -1.322666,2.62467 -1.98379,5.52852 -1.98379,8.71118 0,4.11267 0.733602,7.50213 2.200933,10.16813 1.487999,2.666 3.337787,4.60846 5.549118,5.8278 2.211331,1.19866 4.443197,1.79817 6.695861,1.79817 2.851997,0 5.342202,-0.39294 7.470866,-1.17827 2.149331,-0.806 3.978412,-1.81865 5.487077,-3.03798 l -2.542159,-3.71992 c -1.260666,0.90933 -2.70716,1.6947 -4.339825,2.35603 -1.611999,0.66133 -3.616587,0.99215 -6.013918,0.99215 -3.099997,0 -5.497524,-0.99194 -7.192189,-2.97594 -1.673999,-1.984 -2.480077,-4.87749 -2.418077,-8.68016 h 22.816373 c 0,-3.96799 -0.568447,-7.36781 -1.705113,-10.19914 -1.115998,-2.83133 -2.676386,-4.97001 -4.681051,-6.41668 -1.983998,-1.44667 -4.257279,-2.17042 -6.819943,-2.17042 z m -78.201781,0.43429 v 3.844 h 10.2917 v 26.22609 h -9.6718 v 4.02962 h 23.25015 v -4.02962 h -9.11444 v -30.07009 z m 164.419572,0 v 3.71992 h 10.850071 v 31.0002 c 0,1.32267 -0.216923,2.59365 -0.650923,3.81299 -0.433999,1.21933 -1.126185,2.22162 -2.076851,3.00696 -0.950665,0.78533 -2.149683,1.17776 -3.596349,1.17776 -2.066664,0 -3.688667,-0.7336 -4.866665,-2.20093 -1.177999,-1.44667 -1.767154,-3.50303 -1.767154,-6.16902 h -4.463908 c 0,2.58333 0.464909,4.80484 1.394908,6.66484 0.950665,1.85999 2.263068,3.26558 3.937066,4.21625 1.694665,0.97133 3.63713,1.45695 5.827794,1.45695 2.128665,0 3.999161,-0.51668 5.611159,-1.55001 1.632665,-1.01267 2.893298,-2.43846 3.781964,-4.27779 0.888666,-1.83933 1.332867,-3.94746 1.332867,-6.32412 v -34.534 z m -86.279832,3.96808 c 1.673998,0 3.172263,0.4235 4.494928,1.27083 1.343332,0.82666 2.397396,2.00447 3.162061,3.5338 0.785333,1.52933 1.208826,3.2968 1.270826,5.30146 h -18.413999 c 0.144666,-2.00466 0.640636,-3.77213 1.487969,-5.30146 0.847332,-1.52933 1.963519,-2.70714 3.348185,-3.5338 1.405332,-0.84733 2.955365,-1.27083 4.65003,-1.27083 z m 61.45017414,20.45983 c -1.5706651,0 -2.83129814,0.48562 -3.78196384,1.45695 -0.9506658,0.95067 -1.425928,2.22165 -1.425928,3.81299 0,1.59133 0.4752622,2.87267 1.425928,3.844 0.9506657,0.95067 2.21129874,1.42593 3.78196384,1.42593 1.59133166,0 2.86282726,-0.48562 3.81349296,-1.45695 0.9713323,-0.97133 1.4569484,-2.24232 1.4569484,-3.81298 0,-1.59134 -0.4856161,-2.86232 -1.4569484,-3.81299 -0.9506657,-0.97133 -2.2221613,-1.45695 -3.81349296,-1.45695 z" />
    <path
       style="color:#000000;fill:#000000;fill-opacity:1;stroke:#ffffff;stroke-width:4.92036;stroke-linecap:square;stroke-linejoin:miter;stroke-miterlimit:2.3;stroke-dasharray:none;stroke-opacity:1;paint-order:markers stroke fill"
       d="m 81.533203,128.67773 v 56.41211 H 131.7832 V 139.20508 H 93.150391 v 35.35937 h 27.015629 v -24.83398 h -15.39844 v 12.41797 1.88867 h 3.7793 v -1.88867 -8.63867 h 7.83984 v 17.27539 H 96.929687 v -27.80079 h 31.074223 v 38.32618 H 85.310547 v -48.85352 h 54.312503 v 59.38086 H 80.623047 78.732422 v 3.7793 h 1.890625 62.779293 v -66.93946 z"
       id="path9392"
       inkscape:export-filename="./primes-logo.svg"
       inkscape:export-xdpi="300"
       inkscape:export-ydpi="300" />
    <circle
       style="fill:#9558b2;fill-opacity:1;fill-rule:evenodd;stroke:#72408b;stroke-width:1;stroke-dasharray:none;stroke-opacity:1"
       id="path11588"
       cx="106.65799"
       cy="151.6209"
       r="4.3658934" />
    <circle
       style="fill:#cb3c33;fill-opacity:1;fill-rule:evenodd;stroke:#922a24;stroke-width:1;stroke-dasharray:none;stroke-opacity:1"
       id="path11588-6"
       cx="118.27604"
       cy="151.6209"
       r="4.3658934" />
    <circle
       style="fill:#389826;fill-opacity:1;fill-rule:evenodd;stroke:#2a721c;stroke-width:1;stroke-dasharray:none;stroke-opacity:1"
       id="path11588-6-2"
       cx="118.27604"
       cy="172.67406"
       r="4.3658934" />
    <circle
       style="fill:#cb3c33;fill-opacity:1;fill-rule:evenodd;stroke:#922a24;stroke-width:1;stroke-dasharray:none;stroke-opacity:1"
       id="path11588-6-2-1"
       cx="95.03994"
       cy="172.67406"
       r="4.3658934" />
    <circle
       style="fill:#cb3c33;fill-opacity:1;fill-rule:evenodd;stroke:#922a24;stroke-width:1;stroke-dasharray:none;stroke-opacity:1"
       id="path11588-6-2-1-2"
       cx="106.65799"
       cy="141.09431"
       r="4.3658934" />
    <circle
       style="fill:#389826;fill-opacity:1;fill-rule:evenodd;stroke:#2a721c;stroke-width:1;stroke-dasharray:none;stroke-opacity:1"
       id="path11588-6-2-1-2-0"
       cx="129.8941"
       cy="141.09431"
       r="4.3658934"
       inkscape:label="path11588-6-2-1-2-0" />
    <circle
       style="fill:#9558b2;fill-opacity:1;fill-rule:evenodd;stroke:#72408b;stroke-width:1;stroke-dasharray:none;stroke-opacity:1"
       id="path11588-6-2-1-2-0-7"
       cx="129.52158"
       cy="183.20064"
       r="4.3658934" />
    <circle
       style="fill:#9558b2;fill-opacity:1;fill-rule:evenodd;stroke:#72408b;stroke-width:1;stroke-dasharray:none;stroke-opacity:1"
       id="path11588-6-2-1-2-0-7-3"
       cx="106.55952"
       cy="183.20065"
       r="4.3658934" />
    <circle
       style="fill:#389826;fill-opacity:1;fill-rule:evenodd;stroke:#2a721c;stroke-width:1;stroke-dasharray:none;stroke-opacity:1"
       id="path11588-6-2-1-2-0-7-3-1"
       cx="83.421883"
       cy="161.25009"
       r="4.3658934" />
    <circle
       style="fill:#9558b2;fill-opacity:1;fill-rule:evenodd;stroke:#72408b;stroke-width:1;stroke-dasharray:none;stroke-opacity:1"
       id="path11588-6-2-1-2-0-7-3-1-1"
       cx="118.27604"
       cy="130.56773"
       r="4.3658934" />
    <circle
       style="fill:#cb3c33;fill-opacity:1;fill-rule:evenodd;stroke:#922a24;stroke-width:1;stroke-dasharray:none;stroke-opacity:1"
       id="path11588-6-2-1-2-0-7-3-1-1-9"
       cx="141.51215"
       cy="130.56773"
       r="4.3658934" />
    <circle
       style="fill:#389826;fill-opacity:1;fill-rule:evenodd;stroke:#2a721c;stroke-width:1;stroke-dasharray:none;stroke-opacity:1"
       id="path11588-6-2-1-2-0-7-3-1-1-9-0"
       cx="141.51216"
       cy="193.72723"
       r="4.3658934" />
    <circle
       style="display:inline;fill:#cb3c33;fill-opacity:1;fill-rule:evenodd;stroke:#922a24;stroke-width:1;stroke-dasharray:none;stroke-opacity:1"
       id="path11588-6-2-1-2-0-7-3-1-1-9-0-5"
       cx="95.03994"
       cy="193.72723"
       r="4.3658934" />
    <circle
       style="display:inline;fill:#4063d8;fill-opacity:1;fill-rule:evenodd;stroke:#2748bc;stroke-width:1.24171;stroke-dasharray:none;stroke-opacity:1"
       id="path11588-6-2-1-2-0-7-3-1-6"
       cx="-126.05228"
       cy="137.57382"
       inkscape:transform-center-x="-107.65934"
       inkscape:transform-center-y="3.7463737"
       r="5.4221783" />
  </g>
  <metadata
     id="metadata9763">
    <rdf:RDF>
      <cc:Work
         rdf:about="" />
    </rdf:RDF>
  </metadata>
</svg>
